<mxfile host="app.diagrams.net" modified="2020-04-03T03:03:28.286Z" agent="5.0 (Macintosh; Intel Mac OS X 10_15_5) AppleWebKit/605.1.15 (KHTML, like Gecko) Version/13.1 Safari/605.1.15" etag="Rm8ax-500aF0IpD0KVmq" version="12.9.6" type="github" pages="3">
  <diagram name="服务金" id="74e2e168-ea6b-b213-b513-2b3c1d86103e">
    <mxGraphModel dx="946" dy="637" grid="1" gridSize="10" guides="1" tooltips="1" connect="1" arrows="1" fold="1" page="1" pageScale="1" pageWidth="1100" pageHeight="850" background="#ffffff" math="0" shadow="0">
      <root>
        <mxCell id="0" />
        <mxCell id="1" parent="0" />
        <mxCell id="77e6c97f196da883-1" value="金托管业务" style="swimlane;html=1;childLayout=stackLayout;startSize=20;rounded=0;shadow=0;labelBackgroundColor=none;strokeColor=#000000;strokeWidth=1;fillColor=#ffffff;fontFamily=Verdana;fontSize=8;fontColor=#000000;align=center;" parent="1" vertex="1">
          <mxGeometry x="70" y="50" width="1405" height="750" as="geometry" />
        </mxCell>
        <mxCell id="77e6c97f196da883-2" value="客户" style="swimlane;html=1;startSize=20;" parent="77e6c97f196da883-1" vertex="1">
          <mxGeometry y="20" width="160" height="730" as="geometry" />
        </mxCell>
        <mxCell id="aqZ1NB7vLFw8qtyRI9sM-14" value="完善资料&lt;br&gt;（实名制）" style="rounded=1;whiteSpace=wrap;html=1;shadow=0;labelBackgroundColor=none;strokeColor=#000000;strokeWidth=1;fillColor=#ffffff;fontFamily=Verdana;fontSize=8;fontColor=#000000;align=center;" parent="77e6c97f196da883-2" vertex="1">
          <mxGeometry x="36" y="453" width="80" height="36" as="geometry" />
        </mxCell>
        <mxCell id="aqZ1NB7vLFw8qtyRI9sM-47" style="edgeStyle=none;rounded=0;orthogonalLoop=1;jettySize=auto;html=1;" parent="77e6c97f196da883-2" source="aqZ1NB7vLFw8qtyRI9sM-24" target="aqZ1NB7vLFw8qtyRI9sM-44" edge="1">
          <mxGeometry relative="1" as="geometry" />
        </mxCell>
        <mxCell id="aqZ1NB7vLFw8qtyRI9sM-24" value="查看合同/收益" style="rounded=1;whiteSpace=wrap;html=1;shadow=0;labelBackgroundColor=none;strokeColor=#000000;strokeWidth=1;fillColor=#ffffff;fontFamily=Verdana;fontSize=8;fontColor=#000000;align=center;" parent="77e6c97f196da883-2" vertex="1">
          <mxGeometry x="30" y="530" width="100" height="36" as="geometry" />
        </mxCell>
        <mxCell id="aqZ1NB7vLFw8qtyRI9sM-44" value="发起赎回" style="rounded=1;whiteSpace=wrap;html=1;shadow=0;labelBackgroundColor=none;strokeColor=#000000;strokeWidth=1;fillColor=#ffffff;fontFamily=Verdana;fontSize=8;fontColor=#000000;align=center;" parent="77e6c97f196da883-2" vertex="1">
          <mxGeometry x="40" y="620" width="80" height="36" as="geometry" />
        </mxCell>
        <mxCell id="77e6c97f196da883-3" value="业务员" style="swimlane;html=1;startSize=20;" parent="77e6c97f196da883-1" vertex="1">
          <mxGeometry x="160" y="20" width="605" height="730" as="geometry" />
        </mxCell>
        <mxCell id="E34rKz94oYMN4ZFekfvv-4" style="edgeStyle=orthogonalEdgeStyle;rounded=0;orthogonalLoop=1;jettySize=auto;html=1;entryX=0;entryY=0.5;entryDx=0;entryDy=0;dashed=1;" parent="77e6c97f196da883-3" source="xd8myX0lsc00xmERsK0Q-1" target="77e6c97f196da883-9" edge="1">
          <mxGeometry relative="1" as="geometry">
            <Array as="points">
              <mxPoint x="-10" y="83" />
              <mxPoint x="-10" y="83" />
            </Array>
          </mxGeometry>
        </mxCell>
        <mxCell id="xd8myX0lsc00xmERsK0Q-1" value="注册/登录" style="rounded=1;whiteSpace=wrap;html=1;shadow=0;labelBackgroundColor=none;strokeColor=#000000;strokeWidth=1;fillColor=#ffffff;fontFamily=Verdana;fontSize=8;fontColor=#000000;align=center;" parent="77e6c97f196da883-3" vertex="1">
          <mxGeometry x="-140" y="65" width="80" height="36" as="geometry" />
        </mxCell>
        <mxCell id="77e6c97f196da883-9" value="推荐产品" style="rounded=1;whiteSpace=wrap;html=1;shadow=0;labelBackgroundColor=none;strokeColor=#000000;strokeWidth=1;fillColor=#ffffff;fontFamily=Verdana;fontSize=8;fontColor=#000000;align=center;" parent="77e6c97f196da883-3" vertex="1">
          <mxGeometry x="74" y="65" width="80" height="36" as="geometry" />
        </mxCell>
        <mxCell id="107ba76e4e335f99-1" style="edgeStyle=orthogonalEdgeStyle;rounded=1;html=1;labelBackgroundColor=none;startArrow=none;startFill=0;startSize=5;endArrow=classicThin;endFill=1;endSize=5;jettySize=auto;orthogonalLoop=1;strokeColor=#000000;strokeWidth=1;fontFamily=Verdana;fontSize=8;fontColor=#000000;exitX=0.5;exitY=1;exitDx=0;exitDy=0;exitPerimeter=0;entryX=0.5;entryY=0;entryDx=0;entryDy=0;" parent="77e6c97f196da883-3" source="77e6c97f196da883-9" target="77e6c97f196da883-20" edge="1">
          <mxGeometry relative="1" as="geometry">
            <mxPoint x="84" y="290" as="targetPoint" />
          </mxGeometry>
        </mxCell>
        <mxCell id="E34rKz94oYMN4ZFekfvv-21" style="edgeStyle=none;rounded=0;orthogonalLoop=1;jettySize=auto;html=1;entryX=0.31;entryY=-0.034;entryDx=0;entryDy=0;entryPerimeter=0;" parent="77e6c97f196da883-3" source="77e6c97f196da883-20" target="aqZ1NB7vLFw8qtyRI9sM-54" edge="1">
          <mxGeometry relative="1" as="geometry">
            <mxPoint x="115.76470588235293" y="335" as="targetPoint" />
          </mxGeometry>
        </mxCell>
        <mxCell id="aqZ1NB7vLFw8qtyRI9sM-81" value="虚拟金" style="text;html=1;resizable=0;points=[];align=center;verticalAlign=middle;labelBackgroundColor=#ffffff;" parent="E34rKz94oYMN4ZFekfvv-21" vertex="1" connectable="0">
          <mxGeometry x="-0.3108" relative="1" as="geometry">
            <mxPoint as="offset" />
          </mxGeometry>
        </mxCell>
        <mxCell id="77e6c97f196da883-20" value="类型" style="rhombus;whiteSpace=wrap;html=1;rounded=0;shadow=0;labelBackgroundColor=none;strokeColor=#000000;strokeWidth=1;fillColor=#ffffff;fontFamily=Verdana;fontSize=8;fontColor=#000000;align=center;" parent="77e6c97f196da883-3" vertex="1">
          <mxGeometry x="74" y="170" width="80" height="60" as="geometry" />
        </mxCell>
        <mxCell id="aqZ1NB7vLFw8qtyRI9sM-15" style="edgeStyle=none;rounded=0;orthogonalLoop=1;jettySize=auto;html=1;entryX=0;entryY=0.5;entryDx=0;entryDy=0;exitX=1;exitY=0.5;exitDx=0;exitDy=0;" parent="77e6c97f196da883-3" source="77e6c97f196da883-20" target="aqZ1NB7vLFw8qtyRI9sM-13" edge="1">
          <mxGeometry relative="1" as="geometry">
            <mxPoint x="280" y="200" as="sourcePoint" />
          </mxGeometry>
        </mxCell>
        <mxCell id="aqZ1NB7vLFw8qtyRI9sM-82" value="实物金" style="text;html=1;resizable=0;points=[];align=center;verticalAlign=middle;labelBackgroundColor=#ffffff;" parent="aqZ1NB7vLFw8qtyRI9sM-15" vertex="1" connectable="0">
          <mxGeometry x="-0.243" y="-2" relative="1" as="geometry">
            <mxPoint as="offset" />
          </mxGeometry>
        </mxCell>
        <mxCell id="aqZ1NB7vLFw8qtyRI9sM-18" style="edgeStyle=none;rounded=0;orthogonalLoop=1;jettySize=auto;html=1;entryX=0.5;entryY=0;entryDx=0;entryDy=0;exitX=1;exitY=0.5;exitDx=0;exitDy=0;" parent="77e6c97f196da883-3" source="aqZ1NB7vLFw8qtyRI9sM-13" target="aqZ1NB7vLFw8qtyRI9sM-21" edge="1">
          <mxGeometry relative="1" as="geometry">
            <mxPoint x="470" y="200" as="targetPoint" />
            <Array as="points">
              <mxPoint x="510" y="200" />
            </Array>
          </mxGeometry>
        </mxCell>
        <mxCell id="aqZ1NB7vLFw8qtyRI9sM-80" value="外来金" style="text;html=1;resizable=0;points=[];align=center;verticalAlign=middle;labelBackgroundColor=#ffffff;" parent="aqZ1NB7vLFw8qtyRI9sM-18" vertex="1" connectable="0">
          <mxGeometry x="-0.1031" y="-31" relative="1" as="geometry">
            <mxPoint x="2" as="offset" />
          </mxGeometry>
        </mxCell>
        <mxCell id="aqZ1NB7vLFw8qtyRI9sM-25" style="edgeStyle=none;rounded=0;orthogonalLoop=1;jettySize=auto;html=1;exitX=0.5;exitY=1;exitDx=0;exitDy=0;" parent="77e6c97f196da883-3" source="aqZ1NB7vLFw8qtyRI9sM-13" edge="1">
          <mxGeometry relative="1" as="geometry">
            <mxPoint x="390" y="390" as="targetPoint" />
          </mxGeometry>
        </mxCell>
        <mxCell id="aqZ1NB7vLFw8qtyRI9sM-79" value="自营金" style="text;html=1;resizable=0;points=[];align=center;verticalAlign=middle;labelBackgroundColor=#ffffff;" parent="aqZ1NB7vLFw8qtyRI9sM-25" vertex="1" connectable="0">
          <mxGeometry x="-0.394" y="-2" relative="1" as="geometry">
            <mxPoint as="offset" />
          </mxGeometry>
        </mxCell>
        <mxCell id="aqZ1NB7vLFw8qtyRI9sM-13" value="来源" style="rhombus;whiteSpace=wrap;html=1;" parent="77e6c97f196da883-3" vertex="1">
          <mxGeometry x="349.5" y="175" width="80" height="50" as="geometry" />
        </mxCell>
        <mxCell id="aqZ1NB7vLFw8qtyRI9sM-19" value="签订合同&lt;br&gt;（确认下单）" style="rounded=1;whiteSpace=wrap;html=1;shadow=0;labelBackgroundColor=none;strokeColor=#000000;strokeWidth=1;fillColor=#ffffff;fontFamily=Verdana;fontSize=8;fontColor=#000000;align=center;" parent="77e6c97f196da883-3" vertex="1">
          <mxGeometry x="239.5" y="530" width="80" height="36" as="geometry" />
        </mxCell>
        <mxCell id="aqZ1NB7vLFw8qtyRI9sM-77" style="edgeStyle=none;rounded=0;orthogonalLoop=1;jettySize=auto;html=1;entryX=0.944;entryY=-0.034;entryDx=0;entryDy=0;entryPerimeter=0;" parent="77e6c97f196da883-3" source="aqZ1NB7vLFw8qtyRI9sM-21" target="aqZ1NB7vLFw8qtyRI9sM-73" edge="1">
          <mxGeometry relative="1" as="geometry" />
        </mxCell>
        <mxCell id="aqZ1NB7vLFw8qtyRI9sM-21" value="检测" style="rounded=1;whiteSpace=wrap;html=1;shadow=0;labelBackgroundColor=none;strokeColor=#000000;strokeWidth=1;fillColor=#ffffff;fontFamily=Verdana;fontSize=8;fontColor=#000000;align=center;" parent="77e6c97f196da883-3" vertex="1">
          <mxGeometry x="470" y="271" width="80" height="36" as="geometry" />
        </mxCell>
        <mxCell id="aqZ1NB7vLFw8qtyRI9sM-33" style="edgeStyle=none;rounded=0;orthogonalLoop=1;jettySize=auto;html=1;" parent="77e6c97f196da883-3" source="aqZ1NB7vLFw8qtyRI9sM-26" target="aqZ1NB7vLFw8qtyRI9sM-19" edge="1">
          <mxGeometry relative="1" as="geometry" />
        </mxCell>
        <mxCell id="aqZ1NB7vLFw8qtyRI9sM-26" value="选择产品周期" style="rounded=1;whiteSpace=wrap;html=1;shadow=0;labelBackgroundColor=none;strokeColor=#000000;strokeWidth=1;fillColor=#ffffff;fontFamily=Verdana;fontSize=8;fontColor=#000000;align=center;" parent="77e6c97f196da883-3" vertex="1">
          <mxGeometry x="60" y="446" width="440" height="36" as="geometry" />
        </mxCell>
        <mxCell id="aqZ1NB7vLFw8qtyRI9sM-54" value="认购数量" style="rounded=1;whiteSpace=wrap;html=1;shadow=0;labelBackgroundColor=none;strokeColor=#000000;strokeWidth=1;fillColor=#ffffff;fontFamily=Verdana;fontSize=8;fontColor=#000000;align=center;" parent="77e6c97f196da883-3" vertex="1">
          <mxGeometry x="60" y="367" width="180" height="29" as="geometry" />
        </mxCell>
        <mxCell id="aqZ1NB7vLFw8qtyRI9sM-73" value="计算重量" style="rounded=1;whiteSpace=wrap;html=1;shadow=0;labelBackgroundColor=none;strokeColor=#000000;strokeWidth=1;fillColor=#ffffff;fontFamily=Verdana;fontSize=8;fontColor=#000000;align=center;" parent="77e6c97f196da883-3" vertex="1">
          <mxGeometry x="340" y="365" width="180" height="29" as="geometry" />
        </mxCell>
        <mxCell id="aqZ1NB7vLFw8qtyRI9sM-62" style="edgeStyle=none;rounded=0;orthogonalLoop=1;jettySize=auto;html=1;exitX=0.461;exitY=1;exitDx=0;exitDy=0;exitPerimeter=0;entryX=0.191;entryY=-0.028;entryDx=0;entryDy=0;entryPerimeter=0;" parent="77e6c97f196da883-3" source="aqZ1NB7vLFw8qtyRI9sM-54" target="aqZ1NB7vLFw8qtyRI9sM-26" edge="1">
          <mxGeometry relative="1" as="geometry">
            <mxPoint x="140" y="430" as="sourcePoint" />
            <mxPoint x="143" y="440" as="targetPoint" />
          </mxGeometry>
        </mxCell>
        <mxCell id="aqZ1NB7vLFw8qtyRI9sM-78" style="edgeStyle=none;rounded=0;orthogonalLoop=1;jettySize=auto;html=1;exitX=0.5;exitY=1;exitDx=0;exitDy=0;entryX=0.841;entryY=0.028;entryDx=0;entryDy=0;entryPerimeter=0;" parent="77e6c97f196da883-3" source="aqZ1NB7vLFw8qtyRI9sM-73" target="aqZ1NB7vLFw8qtyRI9sM-26" edge="1">
          <mxGeometry relative="1" as="geometry">
            <mxPoint x="380" y="430" as="sourcePoint" />
            <mxPoint x="379.9999999999998" y="456" as="targetPoint" />
          </mxGeometry>
        </mxCell>
        <mxCell id="77e6c97f196da883-4" value="财务" style="swimlane;html=1;startSize=20;" parent="77e6c97f196da883-1" vertex="1">
          <mxGeometry x="765" y="20" width="160" height="730" as="geometry" />
        </mxCell>
        <mxCell id="77e6c97f196da883-12" value="设定金价&lt;br&gt;（每天/不定期）" style="rounded=1;whiteSpace=wrap;html=1;shadow=0;labelBackgroundColor=none;strokeColor=#000000;strokeWidth=1;fillColor=#ffffff;fontFamily=Verdana;fontSize=8;fontColor=#000000;align=center;" parent="77e6c97f196da883-4" vertex="1">
          <mxGeometry x="25" y="260" width="110" height="36" as="geometry" />
        </mxCell>
        <mxCell id="aqZ1NB7vLFw8qtyRI9sM-32" value="合同复核" style="rounded=1;whiteSpace=wrap;html=1;shadow=0;labelBackgroundColor=none;strokeColor=#000000;strokeWidth=1;fillColor=#ffffff;fontFamily=Verdana;fontSize=8;fontColor=#000000;align=center;" parent="77e6c97f196da883-4" vertex="1">
          <mxGeometry x="26" y="531" width="80" height="36" as="geometry" />
        </mxCell>
        <mxCell id="aqZ1NB7vLFw8qtyRI9sM-48" value="确认&lt;br&gt;付款/出金" style="rounded=1;whiteSpace=wrap;html=1;shadow=0;labelBackgroundColor=none;strokeColor=#000000;strokeWidth=1;fillColor=#ffffff;fontFamily=Verdana;fontSize=8;fontColor=#000000;align=center;" parent="77e6c97f196da883-4" vertex="1">
          <mxGeometry x="26" y="620" width="80" height="36" as="geometry" />
        </mxCell>
        <mxCell id="77e6c97f196da883-5" value="运营" style="swimlane;html=1;startSize=20;" parent="77e6c97f196da883-1" vertex="1">
          <mxGeometry x="925" y="20" width="160" height="730" as="geometry" />
        </mxCell>
        <mxCell id="aqZ1NB7vLFw8qtyRI9sM-66" style="edgeStyle=none;rounded=0;orthogonalLoop=1;jettySize=auto;html=1;" parent="77e6c97f196da883-5" source="xd8myX0lsc00xmERsK0Q-5" target="aqZ1NB7vLFw8qtyRI9sM-65" edge="1">
          <mxGeometry relative="1" as="geometry" />
        </mxCell>
        <mxCell id="xd8myX0lsc00xmERsK0Q-5" value="发布产品" style="rounded=1;whiteSpace=wrap;html=1;shadow=0;labelBackgroundColor=none;strokeColor=#000000;strokeWidth=1;fillColor=#ffffff;fontFamily=Verdana;fontSize=8;fontColor=#000000;align=center;" parent="77e6c97f196da883-5" vertex="1">
          <mxGeometry x="35" y="260" width="80" height="36" as="geometry" />
        </mxCell>
        <mxCell id="aqZ1NB7vLFw8qtyRI9sM-65" value="设置收益计划" style="rounded=1;whiteSpace=wrap;html=1;shadow=0;labelBackgroundColor=none;strokeColor=#000000;strokeWidth=1;fillColor=#ffffff;fontFamily=Verdana;fontSize=8;fontColor=#000000;align=center;" parent="77e6c97f196da883-5" vertex="1">
          <mxGeometry x="36" y="445" width="80" height="36" as="geometry" />
        </mxCell>
        <mxCell id="77e6c97f196da883-6" value="系统后台" style="swimlane;html=1;startSize=20;" parent="77e6c97f196da883-1" vertex="1">
          <mxGeometry x="1085" y="20" width="160" height="730" as="geometry" />
        </mxCell>
        <mxCell id="aqZ1NB7vLFw8qtyRI9sM-11" value="计算收益&lt;br&gt;（自动）" style="rounded=1;whiteSpace=wrap;html=1;shadow=0;labelBackgroundColor=none;strokeColor=#000000;strokeWidth=1;fillColor=#ffffff;fontFamily=Verdana;fontSize=8;fontColor=#000000;align=center;" parent="77e6c97f196da883-6" vertex="1">
          <mxGeometry x="25" y="620" width="80" height="36" as="geometry" />
        </mxCell>
        <mxCell id="aqZ1NB7vLFw8qtyRI9sM-37" style="edgeStyle=none;rounded=0;orthogonalLoop=1;jettySize=auto;html=1;entryX=0.5;entryY=0;entryDx=0;entryDy=0;" parent="77e6c97f196da883-6" source="aqZ1NB7vLFw8qtyRI9sM-34" target="aqZ1NB7vLFw8qtyRI9sM-11" edge="1">
          <mxGeometry relative="1" as="geometry" />
        </mxCell>
        <mxCell id="aqZ1NB7vLFw8qtyRI9sM-34" value="合同生效" style="rounded=1;whiteSpace=wrap;html=1;shadow=0;labelBackgroundColor=none;strokeColor=#000000;strokeWidth=1;fillColor=#ffffff;fontFamily=Verdana;fontSize=8;fontColor=#000000;align=center;" parent="77e6c97f196da883-6" vertex="1">
          <mxGeometry x="25" y="533" width="80" height="36" as="geometry" />
        </mxCell>
        <mxCell id="77e6c97f196da883-7" value="" style="swimlane;html=1;startSize=20;" parent="77e6c97f196da883-1" vertex="1">
          <mxGeometry x="1245" y="20" width="160" height="730" as="geometry" />
        </mxCell>
        <mxCell id="aqZ1NB7vLFw8qtyRI9sM-35" style="edgeStyle=none;rounded=0;orthogonalLoop=1;jettySize=auto;html=1;entryX=0;entryY=0.5;entryDx=0;entryDy=0;" parent="77e6c97f196da883-1" source="aqZ1NB7vLFw8qtyRI9sM-19" target="aqZ1NB7vLFw8qtyRI9sM-32" edge="1">
          <mxGeometry relative="1" as="geometry" />
        </mxCell>
        <mxCell id="aqZ1NB7vLFw8qtyRI9sM-36" style="edgeStyle=none;rounded=0;orthogonalLoop=1;jettySize=auto;html=1;" parent="77e6c97f196da883-1" source="aqZ1NB7vLFw8qtyRI9sM-32" target="aqZ1NB7vLFw8qtyRI9sM-34" edge="1">
          <mxGeometry relative="1" as="geometry" />
        </mxCell>
        <mxCell id="aqZ1NB7vLFw8qtyRI9sM-40" style="edgeStyle=none;rounded=0;orthogonalLoop=1;jettySize=auto;html=1;dashed=1;" parent="77e6c97f196da883-1" source="aqZ1NB7vLFw8qtyRI9sM-19" target="aqZ1NB7vLFw8qtyRI9sM-24" edge="1">
          <mxGeometry relative="1" as="geometry" />
        </mxCell>
        <mxCell id="aqZ1NB7vLFw8qtyRI9sM-49" style="edgeStyle=none;rounded=0;orthogonalLoop=1;jettySize=auto;html=1;dashed=1;" parent="77e6c97f196da883-1" source="aqZ1NB7vLFw8qtyRI9sM-44" target="aqZ1NB7vLFw8qtyRI9sM-48" edge="1">
          <mxGeometry relative="1" as="geometry" />
        </mxCell>
        <mxCell id="aqZ1NB7vLFw8qtyRI9sM-50" style="edgeStyle=none;rounded=0;orthogonalLoop=1;jettySize=auto;html=1;entryX=0;entryY=0.5;entryDx=0;entryDy=0;dashed=1;exitX=1;exitY=0.5;exitDx=0;exitDy=0;" parent="77e6c97f196da883-1" source="77e6c97f196da883-12" target="xd8myX0lsc00xmERsK0Q-5" edge="1">
          <mxGeometry relative="1" as="geometry" />
        </mxCell>
        <mxCell id="aqZ1NB7vLFw8qtyRI9sM-63" style="edgeStyle=none;rounded=0;orthogonalLoop=1;jettySize=auto;html=1;entryX=1;entryY=0.5;entryDx=0;entryDy=0;dashed=1;" parent="77e6c97f196da883-1" source="aqZ1NB7vLFw8qtyRI9sM-11" target="aqZ1NB7vLFw8qtyRI9sM-48" edge="1">
          <mxGeometry relative="1" as="geometry" />
        </mxCell>
        <mxCell id="aqZ1NB7vLFw8qtyRI9sM-67" style="edgeStyle=none;rounded=0;orthogonalLoop=1;jettySize=auto;html=1;entryX=1;entryY=0.5;entryDx=0;entryDy=0;exitX=0;exitY=0.5;exitDx=0;exitDy=0;dashed=1;" parent="77e6c97f196da883-1" source="aqZ1NB7vLFw8qtyRI9sM-65" target="aqZ1NB7vLFw8qtyRI9sM-26" edge="1">
          <mxGeometry relative="1" as="geometry">
            <mxPoint x="930" y="500" as="sourcePoint" />
          </mxGeometry>
        </mxCell>
      </root>
    </mxGraphModel>
  </diagram>
  <diagram name="产业链" id="l8htNi4YbD4oBmqti-kL">
    <mxGraphModel dx="1398" dy="671" grid="1" gridSize="10" guides="1" tooltips="1" connect="1" arrows="1" fold="1" page="1" pageScale="1" pageWidth="1100" pageHeight="850" background="#ffffff" math="0" shadow="0">
      <root>
        <mxCell id="NsfgsFhcZlexKYaY-Mo2-0" />
        <mxCell id="NsfgsFhcZlexKYaY-Mo2-1" parent="NsfgsFhcZlexKYaY-Mo2-0" />
        <mxCell id="NsfgsFhcZlexKYaY-Mo2-114" value="" style="group" parent="NsfgsFhcZlexKYaY-Mo2-1" vertex="1" connectable="0">
          <mxGeometry x="70" y="50" width="1260" height="752" as="geometry" />
        </mxCell>
        <mxCell id="NsfgsFhcZlexKYaY-Mo2-2" value="" style="swimlane;html=1;childLayout=stackLayout;startSize=20;rounded=0;shadow=0;labelBackgroundColor=none;strokeColor=#000000;strokeWidth=1;fillColor=#ffffff;fontFamily=Verdana;fontSize=8;fontColor=#000000;align=center;" parent="NsfgsFhcZlexKYaY-Mo2-114" vertex="1">
          <mxGeometry y="3" width="1260" height="752" as="geometry" />
        </mxCell>
        <mxCell id="NsfgsFhcZlexKYaY-Mo2-3" value="会员" style="swimlane;html=1;startSize=20;" parent="NsfgsFhcZlexKYaY-Mo2-2" vertex="1">
          <mxGeometry y="20" width="160" height="732" as="geometry" />
        </mxCell>
        <mxCell id="NsfgsFhcZlexKYaY-Mo2-4" value="浏览首页" style="rounded=1;whiteSpace=wrap;html=1;shadow=0;labelBackgroundColor=none;strokeColor=#000000;strokeWidth=1;fillColor=#ffffff;fontFamily=Verdana;fontSize=8;fontColor=#000000;align=center;" parent="NsfgsFhcZlexKYaY-Mo2-3" vertex="1">
          <mxGeometry x="20" y="180" width="80" height="36" as="geometry" />
        </mxCell>
        <mxCell id="NsfgsFhcZlexKYaY-Mo2-7" value="&amp;nbsp;浏览商品" style="rounded=1;whiteSpace=wrap;html=1;shadow=0;labelBackgroundColor=none;strokeColor=#000000;strokeWidth=1;fillColor=#ffffff;fontFamily=Verdana;fontSize=8;fontColor=#000000;align=center;" parent="NsfgsFhcZlexKYaY-Mo2-3" vertex="1">
          <mxGeometry x="30" y="507" width="80" height="36" as="geometry" />
        </mxCell>
        <mxCell id="NsfgsFhcZlexKYaY-Mo2-95" value="下单支付" style="rounded=1;whiteSpace=wrap;html=1;shadow=0;labelBackgroundColor=none;strokeColor=#000000;strokeWidth=1;fillColor=#ffffff;fontFamily=Verdana;fontSize=8;fontColor=#000000;align=center;" parent="NsfgsFhcZlexKYaY-Mo2-3" vertex="1">
          <mxGeometry x="30" y="577" width="80" height="36" as="geometry" />
        </mxCell>
        <mxCell id="NsfgsFhcZlexKYaY-Mo2-23" value="浏览商家" style="rounded=1;whiteSpace=wrap;html=1;shadow=0;labelBackgroundColor=none;strokeColor=#000000;strokeWidth=1;fillColor=#ffffff;fontFamily=Verdana;fontSize=8;fontColor=#000000;align=center;" parent="NsfgsFhcZlexKYaY-Mo2-3" vertex="1">
          <mxGeometry x="25" y="292" width="80" height="36" as="geometry" />
        </mxCell>
        <mxCell id="NsfgsFhcZlexKYaY-Mo2-10" value="注册/登录" style="rounded=1;whiteSpace=wrap;html=1;shadow=0;labelBackgroundColor=none;strokeColor=#000000;strokeWidth=1;fillColor=#ffffff;fontFamily=Verdana;fontSize=8;fontColor=#000000;align=center;" parent="NsfgsFhcZlexKYaY-Mo2-3" vertex="1">
          <mxGeometry x="25" y="40" width="80" height="36" as="geometry" />
        </mxCell>
        <mxCell id="NsfgsFhcZlexKYaY-Mo2-126" value="收货完成" style="rounded=1;whiteSpace=wrap;html=1;shadow=0;labelBackgroundColor=none;strokeColor=#000000;strokeWidth=1;fillColor=#ffffff;fontFamily=Verdana;fontSize=8;fontColor=#000000;align=center;" parent="NsfgsFhcZlexKYaY-Mo2-3" vertex="1">
          <mxGeometry x="30" y="667" width="80" height="36" as="geometry" />
        </mxCell>
        <mxCell id="NsfgsFhcZlexKYaY-Mo2-144" value="分类浏览" style="rounded=1;whiteSpace=wrap;html=1;shadow=0;labelBackgroundColor=none;strokeColor=#000000;strokeWidth=1;fillColor=#ffffff;fontFamily=Verdana;fontSize=8;fontColor=#000000;align=center;" parent="NsfgsFhcZlexKYaY-Mo2-3" vertex="1">
          <mxGeometry x="20" y="227" width="80" height="36" as="geometry" />
        </mxCell>
        <mxCell id="NsfgsFhcZlexKYaY-Mo2-145" value="搜索" style="rounded=1;whiteSpace=wrap;html=1;shadow=0;labelBackgroundColor=none;strokeColor=#000000;strokeWidth=1;fillColor=#ffffff;fontFamily=Verdana;fontSize=8;fontColor=#000000;align=center;" parent="NsfgsFhcZlexKYaY-Mo2-3" vertex="1">
          <mxGeometry x="20" y="366" width="80" height="36" as="geometry" />
        </mxCell>
        <mxCell id="NsfgsFhcZlexKYaY-Mo2-8" value="商家" style="swimlane;html=1;startSize=20;" parent="NsfgsFhcZlexKYaY-Mo2-2" vertex="1">
          <mxGeometry x="160" y="20" width="710" height="732" as="geometry" />
        </mxCell>
        <mxCell id="NsfgsFhcZlexKYaY-Mo2-71" style="edgeStyle=orthogonalEdgeStyle;rounded=0;orthogonalLoop=1;jettySize=auto;html=1;" parent="NsfgsFhcZlexKYaY-Mo2-8" source="NsfgsFhcZlexKYaY-Mo2-11" target="NsfgsFhcZlexKYaY-Mo2-38" edge="1">
          <mxGeometry relative="1" as="geometry" />
        </mxCell>
        <mxCell id="NsfgsFhcZlexKYaY-Mo2-103" value="申请" style="text;html=1;align=center;verticalAlign=middle;resizable=0;points=[];;labelBackgroundColor=#ffffff;" parent="NsfgsFhcZlexKYaY-Mo2-71" vertex="1" connectable="0">
          <mxGeometry x="0.0167" y="-1" relative="1" as="geometry">
            <mxPoint as="offset" />
          </mxGeometry>
        </mxCell>
        <mxCell id="uSj4KqgfoohrC6fW1RC8-4" value="金价设置" style="rounded=1;whiteSpace=wrap;html=1;shadow=0;labelBackgroundColor=none;strokeColor=#000000;strokeWidth=1;fillColor=#ffffff;fontFamily=Verdana;fontSize=8;fontColor=#000000;align=center;" vertex="1" parent="NsfgsFhcZlexKYaY-Mo2-8">
          <mxGeometry x="190" y="427" width="80" height="36" as="geometry" />
        </mxCell>
        <mxCell id="NsfgsFhcZlexKYaY-Mo2-11" value="商家注册&lt;br&gt;（工商、店铺、品牌）" style="rounded=1;whiteSpace=wrap;html=1;shadow=0;labelBackgroundColor=none;strokeColor=#000000;strokeWidth=1;fillColor=#ffffff;fontFamily=Verdana;fontSize=8;fontColor=#000000;align=center;" parent="NsfgsFhcZlexKYaY-Mo2-8" vertex="1">
          <mxGeometry x="270" y="99" width="130" height="36" as="geometry" />
        </mxCell>
        <mxCell id="NsfgsFhcZlexKYaY-Mo2-36" value="运营" style="swimlane;html=1;startSize=20;" parent="NsfgsFhcZlexKYaY-Mo2-8" vertex="1">
          <mxGeometry x="470" width="240" height="730" as="geometry" />
        </mxCell>
        <mxCell id="uSj4KqgfoohrC6fW1RC8-8" value="营销管理" style="rounded=1;whiteSpace=wrap;html=1;shadow=0;labelBackgroundColor=none;strokeColor=#000000;strokeWidth=1;fillColor=#ffffff;fontFamily=Verdana;fontSize=8;fontColor=#000000;align=center;" vertex="1" parent="NsfgsFhcZlexKYaY-Mo2-36">
          <mxGeometry x="76" y="547" width="80" height="34" as="geometry" />
        </mxCell>
        <mxCell id="uSj4KqgfoohrC6fW1RC8-6" value="交易设置" style="rounded=1;whiteSpace=wrap;html=1;shadow=0;labelBackgroundColor=none;strokeColor=#000000;strokeWidth=1;fillColor=#ffffff;fontFamily=Verdana;fontSize=8;fontColor=#000000;align=center;" vertex="1" parent="NsfgsFhcZlexKYaY-Mo2-36">
          <mxGeometry x="76" y="335" width="80" height="36" as="geometry" />
        </mxCell>
        <mxCell id="uSj4KqgfoohrC6fW1RC8-7" value="信用分设置" style="rounded=1;whiteSpace=wrap;html=1;shadow=0;labelBackgroundColor=none;strokeColor=#000000;strokeWidth=1;fillColor=#ffffff;fontFamily=Verdana;fontSize=8;fontColor=#000000;align=center;" vertex="1" parent="NsfgsFhcZlexKYaY-Mo2-36">
          <mxGeometry x="76" y="397" width="80" height="36" as="geometry" />
        </mxCell>
        <mxCell id="NsfgsFhcZlexKYaY-Mo2-87" value="支付方式" style="rounded=1;whiteSpace=wrap;html=1;shadow=0;labelBackgroundColor=none;strokeColor=#000000;strokeWidth=1;fillColor=#ffffff;fontFamily=Verdana;fontSize=8;fontColor=#000000;align=center;" parent="NsfgsFhcZlexKYaY-Mo2-36" vertex="1">
          <mxGeometry x="76" y="457" width="80" height="34" as="geometry" />
        </mxCell>
        <mxCell id="NsfgsFhcZlexKYaY-Mo2-38" value="商家管理" style="rounded=1;whiteSpace=wrap;html=1;shadow=0;labelBackgroundColor=none;strokeColor=#000000;strokeWidth=1;fillColor=#ffffff;fontFamily=Verdana;fontSize=8;fontColor=#000000;align=center;" parent="NsfgsFhcZlexKYaY-Mo2-36" vertex="1">
          <mxGeometry x="90" y="99" width="80" height="36" as="geometry" />
        </mxCell>
        <mxCell id="NsfgsFhcZlexKYaY-Mo2-74" value="平台页面模版" style="rounded=1;whiteSpace=wrap;html=1;shadow=0;labelBackgroundColor=none;strokeColor=#000000;strokeWidth=1;fillColor=#ffffff;fontFamily=Verdana;fontSize=8;fontColor=#000000;align=center;" parent="NsfgsFhcZlexKYaY-Mo2-36" vertex="1">
          <mxGeometry x="80" y="175" width="80" height="45" as="geometry" />
        </mxCell>
        <mxCell id="NsfgsFhcZlexKYaY-Mo2-75" value="协议管理" style="rounded=1;whiteSpace=wrap;html=1;shadow=0;labelBackgroundColor=none;strokeColor=#000000;strokeWidth=1;fillColor=#ffffff;fontFamily=Verdana;fontSize=8;fontColor=#000000;align=center;" parent="NsfgsFhcZlexKYaY-Mo2-36" vertex="1">
          <mxGeometry x="80" y="40" width="80" height="36" as="geometry" />
        </mxCell>
        <mxCell id="NsfgsFhcZlexKYaY-Mo2-142" value="" style="group;dashed=1;" parent="NsfgsFhcZlexKYaY-Mo2-36" vertex="1" connectable="0">
          <mxGeometry x="41" y="586" width="150" height="124" as="geometry" />
        </mxCell>
        <mxCell id="NsfgsFhcZlexKYaY-Mo2-139" value="" style="rounded=1;whiteSpace=wrap;html=1;dashed=1;" parent="NsfgsFhcZlexKYaY-Mo2-142" vertex="1">
          <mxGeometry y="7" width="150" height="124" as="geometry" />
        </mxCell>
        <mxCell id="NsfgsFhcZlexKYaY-Mo2-141" value="物流模版" style="rounded=1;whiteSpace=wrap;html=1;shadow=0;labelBackgroundColor=none;strokeColor=#000000;strokeWidth=1;fillColor=#ffffff;fontFamily=Verdana;fontSize=8;fontColor=#000000;align=center;" parent="NsfgsFhcZlexKYaY-Mo2-142" vertex="1">
          <mxGeometry x="39" y="78" width="80" height="31" as="geometry" />
        </mxCell>
        <mxCell id="NsfgsFhcZlexKYaY-Mo2-140" value="物流公司" style="rounded=1;whiteSpace=wrap;html=1;shadow=0;labelBackgroundColor=none;strokeColor=#000000;strokeWidth=1;fillColor=#ffffff;fontFamily=Verdana;fontSize=8;fontColor=#000000;align=center;" parent="NsfgsFhcZlexKYaY-Mo2-142" vertex="1">
          <mxGeometry x="39" y="26" width="80" height="36" as="geometry" />
        </mxCell>
        <mxCell id="NsfgsFhcZlexKYaY-Mo2-39" value="基础设置" style="rounded=1;whiteSpace=wrap;html=1;shadow=0;labelBackgroundColor=none;strokeColor=#000000;strokeWidth=1;fillColor=#ffffff;fontFamily=Verdana;fontSize=8;fontColor=#000000;align=center;" parent="NsfgsFhcZlexKYaY-Mo2-36" vertex="1">
          <mxGeometry x="76" y="237" width="80" height="36" as="geometry" />
        </mxCell>
        <mxCell id="uSj4KqgfoohrC6fW1RC8-5" value="平台奖励设置" style="rounded=1;whiteSpace=wrap;html=1;shadow=0;labelBackgroundColor=none;strokeColor=#000000;strokeWidth=1;fillColor=#ffffff;fontFamily=Verdana;fontSize=8;fontColor=#000000;align=center;" vertex="1" parent="NsfgsFhcZlexKYaY-Mo2-36">
          <mxGeometry x="76" y="287" width="80" height="36" as="geometry" />
        </mxCell>
        <mxCell id="NsfgsFhcZlexKYaY-Mo2-76" value="结算信息认证" style="rounded=1;whiteSpace=wrap;html=1;shadow=0;labelBackgroundColor=none;strokeColor=#000000;strokeWidth=1;fillColor=#ffffff;fontFamily=Verdana;fontSize=8;fontColor=#000000;align=center;" parent="NsfgsFhcZlexKYaY-Mo2-8" vertex="1">
          <mxGeometry x="290" y="144" width="80" height="36" as="geometry" />
        </mxCell>
        <mxCell id="NsfgsFhcZlexKYaY-Mo2-81" style="edgeStyle=orthogonalEdgeStyle;rounded=0;orthogonalLoop=1;jettySize=auto;html=1;" parent="NsfgsFhcZlexKYaY-Mo2-8" source="NsfgsFhcZlexKYaY-Mo2-76" target="NsfgsFhcZlexKYaY-Mo2-38" edge="1">
          <mxGeometry relative="1" as="geometry">
            <mxPoint x="440" y="60" as="targetPoint" />
          </mxGeometry>
        </mxCell>
        <mxCell id="NsfgsFhcZlexKYaY-Mo2-116" style="edgeStyle=orthogonalEdgeStyle;rounded=0;orthogonalLoop=1;jettySize=auto;html=1;entryX=0.5;entryY=0;entryDx=0;entryDy=0;dashed=1;" parent="NsfgsFhcZlexKYaY-Mo2-8" source="NsfgsFhcZlexKYaY-Mo2-82" target="NsfgsFhcZlexKYaY-Mo2-6" edge="1">
          <mxGeometry relative="1" as="geometry" />
        </mxCell>
        <mxCell id="NsfgsFhcZlexKYaY-Mo2-82" value="店铺商品分类" style="rounded=1;whiteSpace=wrap;html=1;shadow=0;labelBackgroundColor=none;strokeColor=#000000;strokeWidth=1;fillColor=#ffffff;fontFamily=Verdana;fontSize=8;fontColor=#000000;align=center;" parent="NsfgsFhcZlexKYaY-Mo2-8" vertex="1">
          <mxGeometry x="285" y="427" width="80" height="36" as="geometry" />
        </mxCell>
        <mxCell id="NsfgsFhcZlexKYaY-Mo2-132" style="edgeStyle=orthogonalEdgeStyle;rounded=0;orthogonalLoop=1;jettySize=auto;html=1;dashed=1;" parent="NsfgsFhcZlexKYaY-Mo2-8" source="NsfgsFhcZlexKYaY-Mo2-83" target="NsfgsFhcZlexKYaY-Mo2-128" edge="1">
          <mxGeometry relative="1" as="geometry" />
        </mxCell>
        <mxCell id="NsfgsFhcZlexKYaY-Mo2-83" value="订单管理" style="rounded=1;whiteSpace=wrap;html=1;shadow=0;labelBackgroundColor=none;strokeColor=#000000;strokeWidth=1;fillColor=#ffffff;fontFamily=Verdana;fontSize=8;fontColor=#000000;align=center;" parent="NsfgsFhcZlexKYaY-Mo2-8" vertex="1">
          <mxGeometry x="290" y="586" width="80" height="36" as="geometry" />
        </mxCell>
        <mxCell id="NsfgsFhcZlexKYaY-Mo2-93" value="商家页面模版" style="rounded=1;whiteSpace=wrap;html=1;shadow=0;labelBackgroundColor=none;strokeColor=#000000;strokeWidth=1;fillColor=#ffffff;fontFamily=Verdana;fontSize=8;fontColor=#000000;align=center;" parent="NsfgsFhcZlexKYaY-Mo2-8" vertex="1">
          <mxGeometry x="290" y="292" width="80" height="36" as="geometry" />
        </mxCell>
        <mxCell id="NsfgsFhcZlexKYaY-Mo2-6" value="商品管理&lt;br&gt;（属性、分销、营销）" style="rounded=1;whiteSpace=wrap;html=1;shadow=0;labelBackgroundColor=none;strokeColor=#000000;strokeWidth=1;fillColor=#ffffff;fontFamily=Verdana;fontSize=8;fontColor=#000000;align=center;" parent="NsfgsFhcZlexKYaY-Mo2-8" vertex="1">
          <mxGeometry x="280" y="506" width="90" height="36" as="geometry" />
        </mxCell>
        <mxCell id="NsfgsFhcZlexKYaY-Mo2-102" style="edgeStyle=orthogonalEdgeStyle;rounded=0;orthogonalLoop=1;jettySize=auto;html=1;entryX=0.5;entryY=0;entryDx=0;entryDy=0;dashed=1;" parent="NsfgsFhcZlexKYaY-Mo2-8" source="NsfgsFhcZlexKYaY-Mo2-75" target="NsfgsFhcZlexKYaY-Mo2-11" edge="1">
          <mxGeometry relative="1" as="geometry" />
        </mxCell>
        <mxCell id="NsfgsFhcZlexKYaY-Mo2-124" value="物流发货" style="rounded=1;whiteSpace=wrap;html=1;shadow=0;labelBackgroundColor=none;strokeColor=#000000;strokeWidth=1;fillColor=#ffffff;fontFamily=Verdana;fontSize=8;fontColor=#000000;align=center;" parent="NsfgsFhcZlexKYaY-Mo2-8" vertex="1">
          <mxGeometry x="120" y="677" width="80" height="36" as="geometry" />
        </mxCell>
        <mxCell id="NsfgsFhcZlexKYaY-Mo2-128" value="线下体验店" style="rounded=1;whiteSpace=wrap;html=1;shadow=0;labelBackgroundColor=none;strokeColor=#000000;strokeWidth=1;fillColor=#ffffff;fontFamily=Verdana;fontSize=8;fontColor=#000000;align=center;" parent="NsfgsFhcZlexKYaY-Mo2-8" vertex="1">
          <mxGeometry x="120" y="586" width="80" height="36" as="geometry" />
        </mxCell>
        <mxCell id="NsfgsFhcZlexKYaY-Mo2-143" style="edgeStyle=orthogonalEdgeStyle;rounded=0;orthogonalLoop=1;jettySize=auto;html=1;entryX=1;entryY=0.5;entryDx=0;entryDy=0;dashed=1;" parent="NsfgsFhcZlexKYaY-Mo2-8" source="NsfgsFhcZlexKYaY-Mo2-139" target="NsfgsFhcZlexKYaY-Mo2-124" edge="1">
          <mxGeometry relative="1" as="geometry" />
        </mxCell>
        <mxCell id="NsfgsFhcZlexKYaY-Mo2-90" style="edgeStyle=orthogonalEdgeStyle;rounded=0;orthogonalLoop=1;jettySize=auto;html=1;dashed=1;" parent="NsfgsFhcZlexKYaY-Mo2-2" source="NsfgsFhcZlexKYaY-Mo2-74" target="NsfgsFhcZlexKYaY-Mo2-4" edge="1">
          <mxGeometry relative="1" as="geometry" />
        </mxCell>
        <mxCell id="NsfgsFhcZlexKYaY-Mo2-94" style="edgeStyle=orthogonalEdgeStyle;rounded=0;orthogonalLoop=1;jettySize=auto;html=1;dashed=1;" parent="NsfgsFhcZlexKYaY-Mo2-2" source="NsfgsFhcZlexKYaY-Mo2-93" target="NsfgsFhcZlexKYaY-Mo2-23" edge="1">
          <mxGeometry relative="1" as="geometry" />
        </mxCell>
        <mxCell id="NsfgsFhcZlexKYaY-Mo2-99" style="edgeStyle=orthogonalEdgeStyle;rounded=0;orthogonalLoop=1;jettySize=auto;html=1;entryX=1;entryY=0.5;entryDx=0;entryDy=0;dashed=1;" parent="NsfgsFhcZlexKYaY-Mo2-2" source="NsfgsFhcZlexKYaY-Mo2-75" target="NsfgsFhcZlexKYaY-Mo2-10" edge="1">
          <mxGeometry relative="1" as="geometry" />
        </mxCell>
        <mxCell id="NsfgsFhcZlexKYaY-Mo2-117" style="edgeStyle=orthogonalEdgeStyle;rounded=0;orthogonalLoop=1;jettySize=auto;html=1;entryX=1;entryY=0.5;entryDx=0;entryDy=0;dashed=1;" parent="NsfgsFhcZlexKYaY-Mo2-2" source="NsfgsFhcZlexKYaY-Mo2-106" target="NsfgsFhcZlexKYaY-Mo2-6" edge="1">
          <mxGeometry relative="1" as="geometry" />
        </mxCell>
        <mxCell id="NsfgsFhcZlexKYaY-Mo2-119" style="edgeStyle=orthogonalEdgeStyle;rounded=0;orthogonalLoop=1;jettySize=auto;html=1;dashed=1;" parent="NsfgsFhcZlexKYaY-Mo2-2" source="NsfgsFhcZlexKYaY-Mo2-6" target="NsfgsFhcZlexKYaY-Mo2-7" edge="1">
          <mxGeometry relative="1" as="geometry" />
        </mxCell>
        <mxCell id="NsfgsFhcZlexKYaY-Mo2-133" style="edgeStyle=orthogonalEdgeStyle;rounded=0;orthogonalLoop=1;jettySize=auto;html=1;entryX=1;entryY=0.5;entryDx=0;entryDy=0;dashed=1;" parent="NsfgsFhcZlexKYaY-Mo2-2" source="NsfgsFhcZlexKYaY-Mo2-128" target="NsfgsFhcZlexKYaY-Mo2-126" edge="1">
          <mxGeometry relative="1" as="geometry" />
        </mxCell>
        <mxCell id="NsfgsFhcZlexKYaY-Mo2-137" value="核销" style="text;html=1;align=center;verticalAlign=middle;resizable=0;points=[];;labelBackgroundColor=#ffffff;" parent="NsfgsFhcZlexKYaY-Mo2-133" vertex="1" connectable="0">
          <mxGeometry x="-0.4689" y="2" relative="1" as="geometry">
            <mxPoint as="offset" />
          </mxGeometry>
        </mxCell>
        <mxCell id="NsfgsFhcZlexKYaY-Mo2-134" style="edgeStyle=orthogonalEdgeStyle;rounded=0;orthogonalLoop=1;jettySize=auto;html=1;entryX=1;entryY=0.5;entryDx=0;entryDy=0;dashed=1;" parent="NsfgsFhcZlexKYaY-Mo2-2" source="NsfgsFhcZlexKYaY-Mo2-124" target="NsfgsFhcZlexKYaY-Mo2-126" edge="1">
          <mxGeometry relative="1" as="geometry" />
        </mxCell>
        <mxCell id="NsfgsFhcZlexKYaY-Mo2-40" value="管理员" style="swimlane;html=1;startSize=20;" parent="NsfgsFhcZlexKYaY-Mo2-2" vertex="1">
          <mxGeometry x="870" y="20" width="300" height="732" as="geometry" />
        </mxCell>
        <mxCell id="NsfgsFhcZlexKYaY-Mo2-43" value="SaaS站点管理" style="rounded=1;whiteSpace=wrap;html=1;shadow=0;labelBackgroundColor=none;strokeColor=#000000;strokeWidth=1;fillColor=#ffffff;fontFamily=Verdana;fontSize=8;fontColor=#000000;align=center;" parent="NsfgsFhcZlexKYaY-Mo2-40" vertex="1">
          <mxGeometry x="100" y="227" width="80" height="36" as="geometry" />
        </mxCell>
        <mxCell id="uSj4KqgfoohrC6fW1RC8-0" value="权限管理&lt;br&gt;（菜单、角色）" style="rounded=1;whiteSpace=wrap;html=1;shadow=0;labelBackgroundColor=none;strokeColor=#000000;strokeWidth=1;fillColor=#ffffff;fontFamily=Verdana;fontSize=8;fontColor=#000000;align=center;" vertex="1" parent="NsfgsFhcZlexKYaY-Mo2-40">
          <mxGeometry x="100" y="87" width="80" height="36" as="geometry" />
        </mxCell>
        <mxCell id="NsfgsFhcZlexKYaY-Mo2-115" value="" style="group" parent="NsfgsFhcZlexKYaY-Mo2-40" vertex="1" connectable="0">
          <mxGeometry x="15" y="387" width="270" height="260" as="geometry" />
        </mxCell>
        <mxCell id="NsfgsFhcZlexKYaY-Mo2-106" value="" style="rounded=1;whiteSpace=wrap;html=1;dashed=1;" parent="NsfgsFhcZlexKYaY-Mo2-115" vertex="1">
          <mxGeometry y="6" width="270" height="260" as="geometry" />
        </mxCell>
        <mxCell id="NsfgsFhcZlexKYaY-Mo2-109" value="商品分类" style="rounded=1;whiteSpace=wrap;html=1;shadow=0;labelBackgroundColor=none;strokeColor=#000000;strokeWidth=1;fillColor=#ffffff;fontFamily=Verdana;fontSize=8;fontColor=#000000;align=center;" parent="NsfgsFhcZlexKYaY-Mo2-115" vertex="1">
          <mxGeometry x="19.5" y="104" width="80" height="36" as="geometry" />
        </mxCell>
        <mxCell id="NsfgsFhcZlexKYaY-Mo2-111" value="商品属性" style="rounded=1;whiteSpace=wrap;html=1;shadow=0;labelBackgroundColor=none;strokeColor=#000000;strokeWidth=1;fillColor=#ffffff;fontFamily=Verdana;fontSize=8;fontColor=#000000;align=center;" parent="NsfgsFhcZlexKYaY-Mo2-115" vertex="1">
          <mxGeometry x="19.5" y="200" width="80" height="36" as="geometry" />
        </mxCell>
        <mxCell id="NsfgsFhcZlexKYaY-Mo2-112" value="商品款式" style="rounded=1;whiteSpace=wrap;html=1;shadow=0;labelBackgroundColor=none;strokeColor=#000000;strokeWidth=1;fillColor=#ffffff;fontFamily=Verdana;fontSize=8;fontColor=#000000;align=center;" parent="NsfgsFhcZlexKYaY-Mo2-115" vertex="1">
          <mxGeometry x="179.5" y="150" width="80" height="36" as="geometry" />
        </mxCell>
        <mxCell id="NsfgsFhcZlexKYaY-Mo2-107" style="edgeStyle=orthogonalEdgeStyle;rounded=0;orthogonalLoop=1;jettySize=auto;html=1;entryX=0;entryY=0.5;entryDx=0;entryDy=0;" parent="NsfgsFhcZlexKYaY-Mo2-115" source="NsfgsFhcZlexKYaY-Mo2-109" target="NsfgsFhcZlexKYaY-Mo2-112" edge="1">
          <mxGeometry relative="1" as="geometry" />
        </mxCell>
        <mxCell id="NsfgsFhcZlexKYaY-Mo2-110" value="" style="edgeStyle=orthogonalEdgeStyle;rounded=0;orthogonalLoop=1;jettySize=auto;html=1;entryX=0;entryY=0.5;entryDx=0;entryDy=0;" parent="NsfgsFhcZlexKYaY-Mo2-115" source="NsfgsFhcZlexKYaY-Mo2-111" target="NsfgsFhcZlexKYaY-Mo2-112" edge="1">
          <mxGeometry relative="1" as="geometry" />
        </mxCell>
        <mxCell id="NsfgsFhcZlexKYaY-Mo2-113" value="商品成色" style="rounded=1;whiteSpace=wrap;html=1;shadow=0;labelBackgroundColor=none;strokeColor=#000000;strokeWidth=1;fillColor=#ffffff;fontFamily=Verdana;fontSize=8;fontColor=#000000;align=center;" parent="NsfgsFhcZlexKYaY-Mo2-115" vertex="1">
          <mxGeometry x="19.5" y="27" width="80" height="36" as="geometry" />
        </mxCell>
        <mxCell id="NsfgsFhcZlexKYaY-Mo2-108" value="" style="edgeStyle=orthogonalEdgeStyle;rounded=0;orthogonalLoop=1;jettySize=auto;html=1;" parent="NsfgsFhcZlexKYaY-Mo2-115" source="NsfgsFhcZlexKYaY-Mo2-109" target="NsfgsFhcZlexKYaY-Mo2-113" edge="1">
          <mxGeometry relative="1" as="geometry" />
        </mxCell>
      </root>
    </mxGraphModel>
  </diagram>
  <diagram id="hEQ_yg2kPSshXSAMFrq0" name="架构">
    <mxGraphModel dx="946" dy="637" grid="1" gridSize="10" guides="1" tooltips="1" connect="1" arrows="1" fold="1" page="1" pageScale="1" pageWidth="827" pageHeight="1169" math="0" shadow="0">
      <root>
        <mxCell id="XY_svhr8wJ1Le2Kpte4z-0" />
        <mxCell id="XY_svhr8wJ1Le2Kpte4z-1" parent="XY_svhr8wJ1Le2Kpte4z-0" />
        <mxCell id="qg0N6oXNJu96aB-btfj4-1" style="edgeStyle=orthogonalEdgeStyle;rounded=0;orthogonalLoop=1;jettySize=auto;html=1;entryX=0;entryY=0.5;entryDx=0;entryDy=0;" parent="XY_svhr8wJ1Le2Kpte4z-1" source="XY_svhr8wJ1Le2Kpte4z-2" target="qg0N6oXNJu96aB-btfj4-0" edge="1">
          <mxGeometry relative="1" as="geometry" />
        </mxCell>
        <mxCell id="XY_svhr8wJ1Le2Kpte4z-2" value="Eureka" style="rounded=1;whiteSpace=wrap;html=1;" parent="XY_svhr8wJ1Le2Kpte4z-1" vertex="1">
          <mxGeometry x="50" y="140" width="120" height="60" as="geometry" />
        </mxCell>
        <mxCell id="qg0N6oXNJu96aB-btfj4-3" style="edgeStyle=orthogonalEdgeStyle;rounded=0;orthogonalLoop=1;jettySize=auto;html=1;" parent="XY_svhr8wJ1Le2Kpte4z-1" source="qg0N6oXNJu96aB-btfj4-0" target="qg0N6oXNJu96aB-btfj4-2" edge="1">
          <mxGeometry relative="1" as="geometry" />
        </mxCell>
        <mxCell id="qg0N6oXNJu96aB-btfj4-8" style="edgeStyle=orthogonalEdgeStyle;rounded=0;orthogonalLoop=1;jettySize=auto;html=1;entryX=0;entryY=0.5;entryDx=0;entryDy=0;" parent="XY_svhr8wJ1Le2Kpte4z-1" source="qg0N6oXNJu96aB-btfj4-0" target="qg0N6oXNJu96aB-btfj4-6" edge="1">
          <mxGeometry relative="1" as="geometry">
            <mxPoint x="280" y="270" as="targetPoint" />
            <Array as="points">
              <mxPoint x="280" y="400" />
            </Array>
          </mxGeometry>
        </mxCell>
        <mxCell id="qg0N6oXNJu96aB-btfj4-0" value="Config" style="rounded=1;whiteSpace=wrap;html=1;" parent="XY_svhr8wJ1Le2Kpte4z-1" vertex="1">
          <mxGeometry x="220" y="140" width="120" height="60" as="geometry" />
        </mxCell>
        <mxCell id="qg0N6oXNJu96aB-btfj4-5" style="edgeStyle=orthogonalEdgeStyle;rounded=0;orthogonalLoop=1;jettySize=auto;html=1;entryX=0;entryY=0.5;entryDx=0;entryDy=0;" parent="XY_svhr8wJ1Le2Kpte4z-1" source="qg0N6oXNJu96aB-btfj4-2" target="qg0N6oXNJu96aB-btfj4-4" edge="1">
          <mxGeometry relative="1" as="geometry" />
        </mxCell>
        <mxCell id="qg0N6oXNJu96aB-btfj4-2" value="Gateway" style="rounded=1;whiteSpace=wrap;html=1;" parent="XY_svhr8wJ1Le2Kpte4z-1" vertex="1">
          <mxGeometry x="400" y="140" width="120" height="60" as="geometry" />
        </mxCell>
        <mxCell id="qg0N6oXNJu96aB-btfj4-18" style="edgeStyle=orthogonalEdgeStyle;rounded=0;orthogonalLoop=1;jettySize=auto;html=1;entryX=0.5;entryY=0;entryDx=0;entryDy=0;dashed=1;" parent="XY_svhr8wJ1Le2Kpte4z-1" source="qg0N6oXNJu96aB-btfj4-4" target="qg0N6oXNJu96aB-btfj4-11" edge="1">
          <mxGeometry relative="1" as="geometry">
            <Array as="points">
              <mxPoint x="655" y="370" />
              <mxPoint x="655" y="370" />
            </Array>
          </mxGeometry>
        </mxCell>
        <mxCell id="qg0N6oXNJu96aB-btfj4-4" value="Auth" style="rounded=1;whiteSpace=wrap;html=1;" parent="XY_svhr8wJ1Le2Kpte4z-1" vertex="1">
          <mxGeometry x="587" y="140" width="120" height="60" as="geometry" />
        </mxCell>
        <mxCell id="qg0N6oXNJu96aB-btfj4-13" style="edgeStyle=orthogonalEdgeStyle;rounded=0;orthogonalLoop=1;jettySize=auto;html=1;exitX=0.442;exitY=1.017;exitDx=0;exitDy=0;exitPerimeter=0;" parent="XY_svhr8wJ1Le2Kpte4z-1" source="qg0N6oXNJu96aB-btfj4-6" target="qg0N6oXNJu96aB-btfj4-11" edge="1">
          <mxGeometry relative="1" as="geometry">
            <Array as="points">
              <mxPoint x="453" y="510" />
            </Array>
          </mxGeometry>
        </mxCell>
        <mxCell id="qg0N6oXNJu96aB-btfj4-6" value="TxManager" style="rounded=1;whiteSpace=wrap;html=1;" parent="XY_svhr8wJ1Le2Kpte4z-1" vertex="1">
          <mxGeometry x="400" y="370" width="120" height="60" as="geometry" />
        </mxCell>
        <mxCell id="qg0N6oXNJu96aB-btfj4-12" value="" style="group" parent="XY_svhr8wJ1Le2Kpte4z-1" vertex="1" connectable="0">
          <mxGeometry x="560" y="370" width="190" height="280" as="geometry" />
        </mxCell>
        <mxCell id="qg0N6oXNJu96aB-btfj4-11" value="" style="rounded=1;whiteSpace=wrap;html=1;fillColor=#f5f5f5;strokeColor=#666666;fontColor=#333333;dashed=1;" parent="qg0N6oXNJu96aB-btfj4-12" vertex="1">
          <mxGeometry width="190" height="280" as="geometry" />
        </mxCell>
        <mxCell id="qg0N6oXNJu96aB-btfj4-7" value="Admin" style="rounded=1;whiteSpace=wrap;html=1;" parent="qg0N6oXNJu96aB-btfj4-12" vertex="1">
          <mxGeometry x="32" y="28" width="120" height="60" as="geometry" />
        </mxCell>
        <mxCell id="qg0N6oXNJu96aB-btfj4-9" value="Business" style="rounded=1;whiteSpace=wrap;html=1;" parent="qg0N6oXNJu96aB-btfj4-12" vertex="1">
          <mxGeometry x="32" y="111" width="120" height="60" as="geometry" />
        </mxCell>
        <mxCell id="qg0N6oXNJu96aB-btfj4-10" value="Mall" style="rounded=1;whiteSpace=wrap;html=1;" parent="qg0N6oXNJu96aB-btfj4-12" vertex="1">
          <mxGeometry x="32" y="193" width="120" height="60" as="geometry" />
        </mxCell>
      </root>
    </mxGraphModel>
  </diagram>
</mxfile>
